<?xml version="1.0" encoding="utf-8"?>
<!-- Generator: Adobe Illustrator 16.0.0, SVG Export Plug-In . SVG Version: 6.00 Build 0)  -->
<!DOCTYPE svg PUBLIC "-//W3C//DTD SVG 1.1//EN" "http://www.w3.org/Graphics/SVG/1.1/DTD/svg11.dtd">
<svg version="1.1" id="Layer_1" xmlns="http://www.w3.org/2000/svg" xmlns:xlink="http://www.w3.org/1999/xlink" x="0px" y="0px"
	 width="203.667px" height="87.667px" viewBox="0 0 203.667 87.667" enable-background="new 0 0 203.667 87.667"
	 xml:space="preserve">
<g>
	<path d="M61.068,44.927c-0.61-0.418-1.05-1.051-1.318-1.898c-0.268-0.847-0.402-1.939-0.402-3.275c0-1.347,0.131-2.447,0.395-3.3
		s0.697-1.491,1.302-1.915c0.605-0.423,1.423-0.635,2.455-0.635c0.916,0,1.915,0.104,2.999,0.31l0.521,0.098l-0.047,0.733
		c-1.326-0.261-2.499-0.391-3.52-0.391c-0.779,0-1.405,0.155-1.878,0.464s-0.823,0.823-1.05,1.54
		c-0.226,0.717-0.339,1.695-0.339,2.933c0,1.271,0.103,2.285,0.308,3.04s0.55,1.309,1.034,1.662s1.163,0.53,2.036,0.53
		c0.431,0,0.847-0.025,1.247-0.074s0.873-0.127,1.42-0.236V40.47h-2.178v-0.766h2.967v5.459c-1.242,0.261-2.41,0.391-3.504,0.391
		C62.494,45.554,61.678,45.345,61.068,44.927z"/>
	<path d="M69.417,33.577h0.789v11.831h-0.789V33.577z"/>
	<path d="M73.56,45.155c-0.468-0.266-0.797-0.695-0.986-1.288c-0.189-0.592-0.284-1.41-0.284-2.453c0-1.097,0.1-1.953,0.3-2.566
		c0.2-0.614,0.534-1.057,1.002-1.328s1.123-0.407,1.965-0.407c0.852,0,1.512,0.138,1.98,0.416c0.468,0.277,0.8,0.723,0.995,1.336
		c0.194,0.614,0.292,1.464,0.292,2.55c0,1.043-0.092,1.861-0.276,2.453c-0.184,0.592-0.51,1.021-0.979,1.288
		s-1.139,0.399-2.012,0.399C74.694,45.554,74.028,45.421,73.56,45.155z M77.127,44.511c0.342-0.217,0.576-0.562,0.702-1.035
		c0.126-0.473,0.189-1.16,0.189-2.062c0-0.956-0.068-1.687-0.205-2.192c-0.137-0.505-0.376-0.863-0.718-1.075
		s-0.844-0.318-1.507-0.318c-0.673,0-1.187,0.106-1.539,0.318c-0.353,0.212-0.598,0.57-0.734,1.075
		c-0.137,0.505-0.205,1.236-0.205,2.192c0,0.891,0.063,1.576,0.189,2.053c0.126,0.479,0.366,0.826,0.718,1.043
		c0.353,0.218,0.876,0.326,1.57,0.326C76.272,44.837,76.785,44.729,77.127,44.511z"/>
	<path d="M81.287,45.44l-0.379-0.049V33.577h0.757v4.156c0.863-0.413,1.742-0.619,2.636-0.619c0.684,0,1.22,0.136,1.61,0.407
		c0.389,0.271,0.668,0.706,0.836,1.304S87,40.236,87,41.269c0,1.141-0.11,2.013-0.331,2.616c-0.221,0.603-0.603,1.029-1.145,1.279
		c-0.542,0.25-1.329,0.375-2.36,0.375C82.523,45.538,81.896,45.505,81.287,45.44z M85.153,44.479c0.4-0.239,0.676-0.614,0.829-1.125
		s0.229-1.222,0.229-2.135c0-0.858-0.063-1.532-0.189-2.021c-0.126-0.489-0.337-0.839-0.631-1.051s-0.71-0.318-1.247-0.318
		c-0.673,0-1.499,0.195-2.478,0.586v6.339c0.863,0.055,1.442,0.082,1.736,0.082C84.169,44.837,84.753,44.718,85.153,44.479z"/>
	<path d="M89.139,44.935c-0.363-0.413-0.544-0.994-0.544-1.744s0.179-1.317,0.537-1.703c0.357-0.386,0.931-0.627,1.72-0.726
		l2.825-0.293v-0.782c0-0.63-0.129-1.095-0.387-1.394s-0.613-0.448-1.065-0.448c-0.463,0-0.894,0.017-1.294,0.049
		c-0.4,0.033-1.026,0.098-1.878,0.196l-0.047-0.668c1.137-0.207,2.146-0.31,3.031-0.31c0.831,0,1.441,0.206,1.831,0.619
		s0.584,1.065,0.584,1.956v4.514c0.011,0.174,0.111,0.321,0.3,0.44c0.189,0.12,0.452,0.201,0.789,0.245l-0.032,0.668
		c-0.379,0-0.718-0.06-1.018-0.179c-0.3-0.119-0.534-0.288-0.702-0.505c-0.989,0.456-2.01,0.684-3.062,0.684
		C90.03,45.554,89.501,45.348,89.139,44.935z M93.25,44.397l0.426-0.147v-3.112l-2.73,0.277c-0.547,0.043-0.939,0.201-1.176,0.473
		c-0.237,0.272-0.355,0.674-0.355,1.206c0,1.173,0.458,1.76,1.373,1.76C91.609,44.854,92.43,44.702,93.25,44.397z"/>
	<path d="M97.023,33.577h0.789v11.831h-0.789V33.577z"/>
	<path d="M104.788,34.783v4.465h4.782v0.733h-4.782v4.693h5.729v0.733h-6.519V34.049h6.519v0.733H104.788z"/>
	<path d="M112.506,37.26h0.773v0.619c0.505-0.282,0.973-0.48,1.405-0.595c0.431-0.114,0.878-0.171,1.341-0.171
		c0.673,0,1.192,0.122,1.555,0.366c0.363,0.245,0.615,0.652,0.758,1.223c0.143,0.57,0.213,1.388,0.213,2.452v4.253h-0.758v-4.237
		c0-0.88-0.05-1.554-0.149-2.021c-0.1-0.467-0.276-0.804-0.529-1.01c-0.252-0.206-0.626-0.31-1.121-0.31
		c-0.432,0-0.874,0.06-1.326,0.179c-0.453,0.12-0.794,0.245-1.026,0.375l-0.347,0.179v6.844h-0.789V37.26z"/>
	<path d="M120.067,37.26h0.852l2.1,7.431h0.647l2.162-7.431h0.821l-2.368,8.148h-1.847L120.067,37.26z"/>
	<path d="M128.29,34h0.758v1.076h-0.758V34z M128.29,37.26h0.758v8.148h-0.758V37.26z"/>
	<path d="M131.462,37.26h0.773v1.206c0.894-0.674,1.909-1.135,3.046-1.385v0.831c-0.432,0.087-0.912,0.239-1.443,0.456
		c-0.532,0.218-0.919,0.413-1.16,0.587l-0.427,0.244v6.209h-0.789V37.26z"/>
	<path d="M137.5,45.155c-0.468-0.266-0.797-0.695-0.986-1.288c-0.189-0.592-0.284-1.41-0.284-2.453c0-1.097,0.1-1.953,0.3-2.566
		s0.534-1.057,1.003-1.328c0.468-0.271,1.123-0.407,1.965-0.407c0.852,0,1.512,0.138,1.98,0.416c0.469,0.277,0.8,0.723,0.994,1.336
		c0.195,0.614,0.293,1.464,0.293,2.55c0,1.043-0.093,1.861-0.277,2.453c-0.184,0.592-0.51,1.021-0.979,1.288
		c-0.468,0.266-1.139,0.399-2.012,0.399C138.633,45.554,137.967,45.421,137.5,45.155z M141.067,44.511
		c0.342-0.217,0.576-0.562,0.702-1.035s0.189-1.16,0.189-2.062c0-0.956-0.068-1.687-0.205-2.192
		c-0.137-0.505-0.376-0.863-0.718-1.075s-0.845-0.318-1.508-0.318c-0.674,0-1.187,0.106-1.539,0.318s-0.598,0.57-0.734,1.075
		c-0.137,0.505-0.205,1.236-0.205,2.192c0,0.891,0.063,1.576,0.189,2.053c0.127,0.479,0.366,0.826,0.719,1.043
		c0.353,0.218,0.876,0.326,1.57,0.326C140.211,44.837,140.725,44.729,141.067,44.511z"/>
	<path d="M144.847,37.26h0.773v0.619c0.505-0.282,0.974-0.48,1.405-0.595c0.431-0.114,0.878-0.171,1.341-0.171
		c0.673,0,1.192,0.122,1.555,0.366c0.363,0.245,0.616,0.652,0.758,1.223c0.142,0.57,0.213,1.388,0.213,2.452v4.253h-0.757v-4.237
		c0-0.88-0.051-1.554-0.15-2.021c-0.1-0.467-0.276-0.804-0.529-1.01c-0.252-0.206-0.626-0.31-1.12-0.31
		c-0.432,0-0.874,0.06-1.326,0.179c-0.452,0.12-0.794,0.245-1.026,0.375l-0.347,0.179v6.844h-0.789V37.26z"/>
	<path d="M153.212,37.26h0.773v0.619c0.81-0.51,1.662-0.766,2.557-0.766c1,0,1.673,0.288,2.021,0.863
		c0.336-0.228,0.789-0.429,1.357-0.603s1.146-0.261,1.736-0.261c0.631,0,1.121,0.13,1.468,0.391c0.347,0.26,0.589,0.679,0.726,1.254
		c0.137,0.576,0.205,1.375,0.205,2.396v4.253h-0.773v-4.237c0-0.902-0.047-1.583-0.142-2.045c-0.095-0.461-0.269-0.793-0.521-0.994
		c-0.253-0.201-0.631-0.301-1.137-0.301c-0.453,0-0.899,0.06-1.342,0.179c-0.441,0.12-0.768,0.245-0.979,0.375l-0.331,0.179
		c0.179,0.152,0.269,1.021,0.269,2.607v4.237h-0.789v-4.205c0-0.891-0.048-1.572-0.143-2.045s-0.266-0.812-0.514-1.019
		c-0.246-0.206-0.612-0.31-1.096-0.31c-0.422,0-0.848,0.057-1.279,0.171c-0.432,0.114-0.758,0.242-0.979,0.383l-0.3,0.179v6.844
		h-0.789V37.26z"/>
	<path d="M166.794,44.593c-0.479-0.641-0.718-1.656-0.718-3.047c0-1.51,0.26-2.626,0.781-3.349c0.521-0.723,1.338-1.083,2.454-1.083
		c1.031,0,1.794,0.312,2.288,0.937c0.495,0.625,0.742,1.6,0.742,2.925l-0.016,0.685h-5.461c-0.011,0.782,0.063,1.404,0.221,1.866
		c0.158,0.462,0.429,0.799,0.813,1.01c0.385,0.212,0.918,0.318,1.603,0.318c0.284,0,0.618-0.008,1.003-0.024
		c0.383-0.016,0.738-0.041,1.064-0.073l0.474-0.049l0.032,0.668c-1.096,0.12-2.026,0.179-2.795,0.179
		C168.102,45.554,167.273,45.234,166.794,44.593z M171.553,40.975c0-1.13-0.18-1.942-0.537-2.436s-0.926-0.742-1.704-0.742
		c-0.811,0-1.421,0.258-1.831,0.774s-0.621,1.317-0.631,2.403H171.553z"/>
	<path d="M174.331,37.26h0.773v0.619c0.506-0.282,0.974-0.48,1.405-0.595c0.431-0.114,0.878-0.171,1.341-0.171
		c0.674,0,1.192,0.122,1.555,0.366c0.363,0.245,0.616,0.652,0.758,1.223c0.143,0.57,0.213,1.388,0.213,2.452v4.253h-0.757v-4.237
		c0-0.88-0.05-1.554-0.149-2.021c-0.101-0.467-0.277-0.804-0.529-1.01c-0.252-0.206-0.627-0.31-1.121-0.31
		c-0.432,0-0.873,0.06-1.326,0.179c-0.452,0.12-0.794,0.245-1.025,0.375l-0.348,0.179v6.844h-0.789V37.26z"/>
	<path d="M183.896,45.326c-0.284-0.174-0.489-0.47-0.616-0.888c-0.126-0.418-0.189-1.013-0.189-1.784v-4.677h-1.199V37.26h1.199
		v-2.591h0.758v2.591h2.763v0.717h-2.763V42.1c0,0.75,0.026,1.307,0.079,1.67c0.053,0.364,0.171,0.638,0.355,0.823
		c0.185,0.185,0.486,0.277,0.907,0.277l1.5-0.13l0.063,0.684c-0.736,0.109-1.294,0.163-1.673,0.163
		C184.575,45.587,184.18,45.5,183.896,45.326z"/>
	<path d="M188.133,44.935c-0.363-0.413-0.544-0.994-0.544-1.744s0.179-1.317,0.536-1.703s0.932-0.627,1.721-0.726l2.825-0.293
		v-0.782c0-0.63-0.129-1.095-0.387-1.394s-0.612-0.448-1.065-0.448c-0.463,0-0.895,0.017-1.294,0.049
		c-0.399,0.033-1.026,0.098-1.878,0.196L188,37.423c1.137-0.207,2.146-0.31,3.03-0.31c0.832,0,1.441,0.206,1.831,0.619
		s0.584,1.065,0.584,1.956v4.514c0.011,0.174,0.11,0.321,0.3,0.44c0.189,0.12,0.453,0.201,0.789,0.245l-0.031,0.668
		c-0.379,0-0.719-0.06-1.018-0.179c-0.301-0.119-0.535-0.288-0.703-0.505c-0.988,0.456-2.01,0.684-3.062,0.684
		C189.026,45.554,188.497,45.348,188.133,44.935z M192.246,44.397l0.426-0.147v-3.112l-2.73,0.277
		c-0.548,0.043-0.938,0.201-1.176,0.473c-0.237,0.272-0.354,0.674-0.354,1.206c0,1.173,0.457,1.76,1.373,1.76
		C190.604,44.854,191.424,44.702,192.246,44.397z"/>
	<path d="M196.018,33.577h0.789v11.831h-0.789V33.577z"/>
</g>
<g>
	<path d="M62.812,62.38c-0.595-0.44-1.002-1.076-1.223-1.907c-0.221-0.831-0.332-1.925-0.332-3.284c0-1.304,0.103-2.365,0.308-3.186
		c0.205-0.82,0.605-1.461,1.2-1.923c0.594-0.461,1.449-0.692,2.565-0.692c0.799,0,1.747,0.104,2.841,0.31l-0.047,0.75
		c-1.031-0.206-1.973-0.31-2.825-0.31c-0.895,0-1.568,0.166-2.021,0.497c-0.452,0.332-0.763,0.872-0.931,1.622
		c-0.168,0.75-0.252,1.831-0.252,3.243c0,1.141,0.082,2.045,0.245,2.713s0.492,1.182,0.986,1.54s1.226,0.538,2.194,0.538
		c0.757,0,1.625-0.108,2.604-0.326l0.047,0.75c-1.021,0.217-1.957,0.326-2.81,0.326C64.256,63.04,63.406,62.82,62.812,62.38z"/>
	<path d="M70.83,62.641c-0.468-0.266-0.797-0.695-0.986-1.288c-0.189-0.592-0.284-1.41-0.284-2.453c0-1.097,0.1-1.953,0.3-2.566
		c0.2-0.614,0.534-1.057,1.002-1.328s1.123-0.407,1.965-0.407c0.852,0,1.512,0.138,1.98,0.416c0.468,0.277,0.8,0.723,0.995,1.336
		c0.194,0.614,0.292,1.464,0.292,2.55c0,1.043-0.092,1.861-0.276,2.453c-0.184,0.592-0.51,1.021-0.979,1.288
		S73.7,63.04,72.827,63.04C71.963,63.04,71.298,62.907,70.83,62.641z M74.397,61.997c0.342-0.217,0.576-0.562,0.702-1.035
		c0.126-0.473,0.189-1.16,0.189-2.062c0-0.956-0.068-1.687-0.205-2.192c-0.137-0.505-0.376-0.863-0.718-1.075
		s-0.844-0.318-1.507-0.318c-0.673,0-1.187,0.106-1.539,0.318c-0.353,0.212-0.598,0.57-0.734,1.075
		c-0.137,0.505-0.205,1.236-0.205,2.192c0,0.891,0.063,1.576,0.189,2.053c0.126,0.479,0.366,0.826,0.718,1.043
		c0.353,0.218,0.876,0.326,1.57,0.326C73.542,62.323,74.055,62.214,74.397,61.997z"/>
	<path d="M78.177,54.745h0.773v0.619c0.505-0.282,0.973-0.48,1.405-0.595c0.431-0.114,0.878-0.171,1.341-0.171
		c0.673,0,1.192,0.122,1.555,0.366c0.363,0.245,0.616,0.652,0.758,1.223c0.142,0.57,0.213,1.388,0.213,2.452v4.253h-0.757v-4.237
		c0-0.88-0.05-1.554-0.15-2.021c-0.1-0.467-0.276-0.804-0.529-1.01c-0.252-0.206-0.626-0.31-1.121-0.31
		c-0.432,0-0.874,0.06-1.326,0.179c-0.453,0.12-0.794,0.245-1.026,0.375l-0.347,0.179v6.844h-0.789V54.745z"/>
	<path d="M87.742,62.812c-0.284-0.174-0.489-0.47-0.616-0.888c-0.126-0.418-0.189-1.013-0.189-1.784v-4.677h-1.2v-0.717h1.2v-2.591
		h0.758v2.591h2.762v0.717h-2.762v4.123c0,0.75,0.026,1.307,0.079,1.67c0.053,0.364,0.171,0.638,0.355,0.823
		c0.184,0.185,0.486,0.277,0.907,0.277l1.5-0.13l0.063,0.684c-0.737,0.109-1.294,0.163-1.673,0.163
		C88.421,63.072,88.026,62.985,87.742,62.812z"/>
	<path d="M91.925,54.745h0.773v1.206c0.894-0.674,1.91-1.135,3.046-1.385v0.831c-0.431,0.087-0.913,0.239-1.444,0.456
		c-0.532,0.218-0.918,0.413-1.16,0.587l-0.426,0.244v6.209h-0.789V54.745z"/>
	<path d="M97.962,62.641c-0.468-0.266-0.797-0.695-0.986-1.288c-0.189-0.592-0.284-1.41-0.284-2.453c0-1.097,0.1-1.953,0.3-2.566
		c0.2-0.614,0.534-1.057,1.002-1.328s1.123-0.407,1.965-0.407c0.852,0,1.512,0.138,1.98,0.416c0.468,0.277,0.8,0.723,0.995,1.336
		c0.194,0.614,0.292,1.464,0.292,2.55c0,1.043-0.092,1.861-0.276,2.453c-0.184,0.592-0.51,1.021-0.979,1.288
		s-1.139,0.399-2.012,0.399C99.096,63.04,98.43,62.907,97.962,62.641z M101.529,61.997c0.342-0.217,0.576-0.562,0.702-1.035
		c0.126-0.473,0.189-1.16,0.189-2.062c0-0.956-0.068-1.687-0.205-2.192c-0.137-0.505-0.376-0.863-0.718-1.075
		s-0.844-0.318-1.507-0.318c-0.673,0-1.187,0.106-1.539,0.318c-0.353,0.212-0.598,0.57-0.734,1.075
		c-0.137,0.505-0.205,1.236-0.205,2.192c0,0.891,0.063,1.576,0.189,2.053c0.126,0.479,0.366,0.826,0.718,1.043
		c0.353,0.218,0.876,0.326,1.57,0.326C100.674,62.323,101.187,62.214,101.529,61.997z"/>
	<path d="M105.404,51.062h0.789v11.831h-0.789V51.062z"/>
	<path d="M113.524,62.38c-0.595-0.44-1.002-1.076-1.223-1.907c-0.221-0.831-0.332-1.925-0.332-3.284
		c0-1.304,0.103-2.365,0.308-3.186c0.205-0.82,0.605-1.461,1.2-1.923c0.594-0.461,1.449-0.692,2.565-0.692
		c0.799,0,1.747,0.104,2.841,0.31l-0.048,0.75c-1.031-0.206-1.973-0.31-2.825-0.31c-0.895,0-1.568,0.166-2.021,0.497
		c-0.452,0.332-0.763,0.872-0.931,1.622c-0.168,0.75-0.252,1.831-0.252,3.243c0,1.141,0.082,2.045,0.245,2.713
		s0.492,1.182,0.986,1.54s1.226,0.538,2.194,0.538c0.757,0,1.625-0.108,2.604-0.326l0.048,0.75c-1.021,0.217-1.958,0.326-2.81,0.326
		C114.969,63.04,114.119,62.82,113.524,62.38z"/>
	<path d="M121.542,62.641c-0.468-0.266-0.797-0.695-0.986-1.288c-0.189-0.592-0.283-1.41-0.283-2.453c0-1.097,0.1-1.953,0.299-2.566
		c0.201-0.614,0.535-1.057,1.003-1.328s1.123-0.407,1.966-0.407c0.852,0,1.512,0.138,1.98,0.416
		c0.468,0.277,0.799,0.723,0.994,1.336c0.194,0.614,0.292,1.464,0.292,2.55c0,1.043-0.093,1.861-0.276,2.453
		c-0.184,0.592-0.51,1.021-0.979,1.288s-1.139,0.399-2.012,0.399C122.676,63.04,122.01,62.907,121.542,62.641z M125.11,61.997
		c0.342-0.217,0.576-0.562,0.701-1.035c0.127-0.473,0.189-1.16,0.189-2.062c0-0.956-0.068-1.687-0.205-2.192
		c-0.137-0.505-0.376-0.863-0.718-1.075s-0.845-0.318-1.507-0.318c-0.674,0-1.188,0.106-1.539,0.318
		c-0.354,0.212-0.598,0.57-0.734,1.075c-0.137,0.505-0.205,1.236-0.205,2.192c0,0.891,0.063,1.576,0.189,2.053
		c0.127,0.479,0.365,0.826,0.719,1.043c0.352,0.218,0.875,0.326,1.57,0.326C124.254,62.323,124.767,62.214,125.11,61.997z"/>
	<path d="M128.889,54.745h0.773v0.619c0.811-0.51,1.662-0.766,2.557-0.766c1,0,1.674,0.288,2.021,0.863
		c0.336-0.228,0.789-0.429,1.357-0.603s1.146-0.261,1.736-0.261c0.631,0,1.12,0.13,1.467,0.391c0.348,0.26,0.59,0.679,0.727,1.254
		c0.137,0.576,0.205,1.375,0.205,2.396v4.253h-0.773v-4.237c0-0.902-0.047-1.583-0.143-2.045c-0.094-0.461-0.268-0.793-0.52-0.994
		c-0.254-0.201-0.632-0.301-1.137-0.301c-0.453,0-0.9,0.06-1.342,0.179c-0.442,0.12-0.769,0.245-0.979,0.375l-0.332,0.179
		c0.18,0.152,0.269,1.021,0.269,2.607v4.237h-0.789v-4.205c0-0.891-0.048-1.572-0.142-2.045c-0.096-0.473-0.267-0.812-0.514-1.019
		c-0.247-0.206-0.613-0.31-1.097-0.31c-0.421,0-0.847,0.057-1.278,0.171c-0.432,0.114-0.758,0.242-0.979,0.383l-0.301,0.179v6.844
		h-0.789V54.745z"/>
	<path d="M142.069,54.745h0.773v0.652c0.852-0.532,1.726-0.798,2.62-0.798c0.968,0,1.665,0.326,2.091,0.978
		c0.427,0.652,0.64,1.7,0.64,3.145c0,1.032-0.11,1.861-0.331,2.485s-0.584,1.086-1.09,1.385c-0.505,0.299-1.184,0.448-2.035,0.448
		c-0.643,0-1.269-0.065-1.879-0.195v3.748h-0.789V54.745z M146.82,61.5c0.39-0.56,0.584-1.464,0.584-2.713
		c0-1.239-0.166-2.127-0.497-2.665c-0.332-0.538-0.824-0.807-1.477-0.807c-0.357,0-0.749,0.063-1.176,0.188
		c-0.426,0.125-0.775,0.258-1.049,0.399l-0.348,0.212v6.013c0.926,0.142,1.589,0.212,1.988,0.212
		C145.772,62.339,146.43,62.06,146.82,61.5z"/>
	<path d="M150.332,62.42c-0.363-0.413-0.544-0.994-0.544-1.744s0.178-1.317,0.536-1.703c0.357-0.386,0.931-0.627,1.72-0.726
		l2.826-0.293v-0.782c0-0.63-0.129-1.095-0.387-1.394s-0.613-0.448-1.066-0.448c-0.463,0-0.894,0.017-1.293,0.049
		c-0.4,0.033-1.026,0.098-1.879,0.196l-0.047-0.668c1.137-0.207,2.146-0.31,3.03-0.31c0.831,0,1.441,0.206,1.831,0.619
		c0.389,0.413,0.584,1.065,0.584,1.956v4.514c0.01,0.174,0.11,0.321,0.3,0.44c0.188,0.12,0.452,0.201,0.789,0.245L156.7,63.04
		c-0.379,0-0.718-0.06-1.018-0.179c-0.3-0.119-0.534-0.288-0.702-0.505c-0.989,0.456-2.011,0.684-3.062,0.684
		C151.223,63.04,150.694,62.833,150.332,62.42z M154.444,61.883l0.426-0.147v-3.112l-2.73,0.277
		c-0.548,0.043-0.939,0.201-1.176,0.473c-0.237,0.272-0.355,0.674-0.355,1.206c0,1.173,0.457,1.76,1.373,1.76
		C152.801,62.339,153.623,62.187,154.444,61.883z"/>
	<path d="M158.122,54.745h0.773v0.619c0.504-0.282,0.973-0.48,1.404-0.595s0.879-0.171,1.342-0.171c0.673,0,1.191,0.122,1.555,0.366
		c0.363,0.245,0.615,0.652,0.758,1.223c0.142,0.57,0.213,1.388,0.213,2.452v4.253h-0.758v-4.237c0-0.88-0.051-1.554-0.15-2.021
		c-0.1-0.467-0.275-0.804-0.528-1.01c-0.253-0.206-0.626-0.31-1.12-0.31c-0.432,0-0.874,0.06-1.326,0.179
		c-0.453,0.12-0.795,0.245-1.026,0.375l-0.347,0.179v6.844h-0.789V54.745z"/>
	<path d="M169.028,62.893h-1.026l-2.368-8.148h0.79l2.21,7.431h0.584l2.225-7.431h0.806l-3.504,11.847h-0.806L169.028,62.893z"/>
	<path d="M173.194,61.41h0.869v1.483h-0.869V61.41z"/>
	<path d="M182.585,62.144v0.75h-5.966V51.535h0.789v10.609H182.585z"/>
	<path d="M184.954,52.284h-3.568v-0.75h7.893v0.75h-3.535v10.609h-0.789V52.284z"/>
	<path d="M197.975,53.115c0.504,1.054,0.758,2.314,0.758,3.781c0,2.053-0.335,3.566-1.003,4.539
		c-0.669,0.973-1.603,1.458-2.802,1.458h-4.025V51.535h4.025C196.454,51.535,197.469,52.062,197.975,53.115z M196.491,61.589
		c0.453-0.38,0.805-0.948,1.058-1.703c0.253-0.755,0.379-1.681,0.379-2.778c0-1.64-0.266-2.857-0.797-3.65
		c-0.532-0.793-1.266-1.189-2.202-1.189h-3.235v9.892h3.235C195.518,62.16,196.039,61.97,196.491,61.589z"/>
</g>
<g>
	<defs>
		<path id="SVGID_1_" d="M43.662,11.304c0,3.526,2.858,6.384,6.385,6.384c3.526,0,6.385-2.858,6.385-6.384
			c0-3.527-2.859-6.385-6.385-6.385C46.52,4.919,43.662,7.777,43.662,11.304"/>
	</defs>
	<clipPath id="SVGID_2_">
		<use xlink:href="#SVGID_1_"  overflow="visible"/>
	</clipPath>
	
		<linearGradient id="SVGID_3_" gradientUnits="userSpaceOnUse" x1="-205.9185" y1="476.9644" x2="-204.9185" y2="476.9644" gradientTransform="matrix(12.7695 0 0 -12.7695 2673.1372 6101.9072)">
		<stop  offset="0" style="stop-color:#456CB4"/>
		<stop  offset="1" style="stop-color:#5AA05E"/>
	</linearGradient>
	<rect x="43.662" y="4.919" clip-path="url(#SVGID_2_)" fill="url(#SVGID_3_)" width="12.77" height="12.769"/>
</g>
<g>
	<defs>
		<path id="SVGID_4_" d="M43.996,11.303c0-3.336,2.714-6.05,6.051-6.05c3.336,0,6.051,2.714,6.051,6.05
			c0,3.337-2.715,6.051-6.051,6.051C46.709,17.354,43.996,14.641,43.996,11.303 M43.327,11.303c0,3.705,3.015,6.72,6.72,6.72
			c3.704,0,6.719-3.015,6.719-6.72c0-3.705-3.015-6.719-6.719-6.719C46.341,4.584,43.327,7.599,43.327,11.303"/>
	</defs>
	<clipPath id="SVGID_5_">
		<use xlink:href="#SVGID_4_"  overflow="visible"/>
	</clipPath>
	
		<linearGradient id="SVGID_6_" gradientUnits="userSpaceOnUse" x1="-206.4375" y1="477.9956" x2="-205.4375" y2="477.9956" gradientTransform="matrix(13.4394 0 0 -13.4394 2817.7161 6435.2686)">
		<stop  offset="0" style="stop-color:#456CB4"/>
		<stop  offset="1" style="stop-color:#5AA05E"/>
	</linearGradient>
	<rect x="43.327" y="4.584" clip-path="url(#SVGID_5_)" fill="url(#SVGID_6_)" width="13.439" height="13.439"/>
</g>
<g>
	<defs>
		<path id="SVGID_7_" d="M14.123,71.602c0,6.822,5.529,12.352,12.351,12.352c6.822,0,12.353-5.53,12.353-12.352
			c0-6.822-5.531-12.352-12.353-12.352C19.651,59.25,14.123,64.779,14.123,71.602"/>
	</defs>
	<clipPath id="SVGID_8_">
		<use xlink:href="#SVGID_7_"  overflow="visible"/>
	</clipPath>
	
		<linearGradient id="SVGID_9_" gradientUnits="userSpaceOnUse" x1="-210.9507" y1="486.9653" x2="-209.9507" y2="486.9653" gradientTransform="matrix(24.7044 0 0 -24.7044 5225.5186 12101.8047)">
		<stop  offset="0" style="stop-color:#456CB4"/>
		<stop  offset="1" style="stop-color:#5AA05E"/>
	</linearGradient>
	<rect x="14.123" y="59.25" clip-path="url(#SVGID_8_)" fill="url(#SVGID_9_)" width="24.704" height="24.704"/>
</g>
<g>
	<defs>
		<path id="SVGID_10_" d="M14.457,71.602c0-6.627,5.39-12.018,12.017-12.018s12.018,5.391,12.018,12.018
			c0,6.625-5.391,12.018-12.018,12.018S14.457,78.227,14.457,71.602 M13.788,71.602c0,6.995,5.691,12.686,12.686,12.686
			c6.997,0,12.687-5.691,12.687-12.686c0-6.996-5.69-12.687-12.687-12.687C19.479,58.915,13.788,64.605,13.788,71.602"/>
	</defs>
	<clipPath id="SVGID_11_">
		<use xlink:href="#SVGID_10_"  overflow="visible"/>
	</clipPath>
	
		<linearGradient id="SVGID_12_" gradientUnits="userSpaceOnUse" x1="-211.0923" y1="487.2476" x2="-210.0923" y2="487.2476" gradientTransform="matrix(25.3734 0 0 -25.3734 5369.9063 12434.7461)">
		<stop  offset="0" style="stop-color:#456CB4"/>
		<stop  offset="1" style="stop-color:#5AA05E"/>
	</linearGradient>
	<rect x="13.788" y="58.915" clip-path="url(#SVGID_11_)" fill="url(#SVGID_12_)" width="25.373" height="25.373"/>
</g>
<g>
	<defs>
		<path id="SVGID_13_" d="M15.854,33.156c0-5.735,4.666-10.401,10.402-10.401c5.734,0,10.401,4.666,10.401,10.401
			c0,5.735-4.667,10.402-10.401,10.402C20.52,43.559,15.854,38.892,15.854,33.156 M4.593,33.156
			c0,11.963,9.698,21.662,21.662,21.662c11.962,0,21.66-9.699,21.66-21.662c0-11.962-9.698-21.661-21.66-21.661
			C14.292,11.495,4.593,21.194,4.593,33.156"/>
	</defs>
	<clipPath id="SVGID_14_">
		<use xlink:href="#SVGID_13_"  overflow="visible"/>
	</clipPath>
	
		<linearGradient id="SVGID_15_" gradientUnits="userSpaceOnUse" x1="-213.2637" y1="491.564" x2="-212.2637" y2="491.564" gradientTransform="matrix(43.3217 0 0 -43.3217 9243.5273 21328.5547)">
		<stop  offset="0" style="stop-color:#456CB4"/>
		<stop  offset="1" style="stop-color:#5AA05E"/>
	</linearGradient>
	<rect x="4.593" y="11.495" clip-path="url(#SVGID_14_)" fill="url(#SVGID_15_)" width="43.322" height="43.323"/>
</g>
<g>
	<defs>
		<path id="SVGID_16_" d="M16.188,33.156c0-5.551,4.516-10.066,10.067-10.066c5.551,0,10.067,4.515,10.067,10.066
			c0,5.552-4.516,10.067-10.067,10.067C20.704,43.224,16.188,38.708,16.188,33.156 M15.519,33.156
			c0,5.921,4.816,10.737,10.736,10.737c5.919,0,10.736-4.816,10.736-10.737c0-5.92-4.817-10.736-10.736-10.736
			C20.334,22.42,15.519,27.236,15.519,33.156 M4.928,33.156c0-11.759,9.568-21.326,21.327-21.326
			c11.759,0,21.326,9.567,21.326,21.326c0,11.76-9.567,21.327-21.326,21.327C14.496,54.483,4.928,44.917,4.928,33.156 M4.258,33.156
			c0,12.129,9.867,21.997,21.996,21.997S48.25,45.285,48.25,33.156c0-12.128-9.867-21.995-21.996-21.995S4.258,21.028,4.258,33.156"
			/>
	</defs>
	<clipPath id="SVGID_17_">
		<use xlink:href="#SVGID_16_"  overflow="visible"/>
	</clipPath>
	
		<linearGradient id="SVGID_18_" gradientUnits="userSpaceOnUse" x1="-213.311" y1="491.6567" x2="-212.311" y2="491.6567" gradientTransform="matrix(43.9913 0 0 -43.9913 9388.0566 21661.7832)">
		<stop  offset="0" style="stop-color:#456CB4"/>
		<stop  offset="1" style="stop-color:#5AA05E"/>
	</linearGradient>
	<rect x="4.258" y="11.162" clip-path="url(#SVGID_17_)" fill="url(#SVGID_18_)" width="43.992" height="43.992"/>
</g>
<g>
	<defs>
		<path id="SVGID_19_" d="M49.336,2.813c-0.158,0.02-0.27,0.162-0.251,0.32c0.017,0.156,0.164,0.269,0.317,0.251
			c0.305-0.037,0.616-0.055,0.926-0.055c4.285,0,7.771,3.485,7.771,7.771c0,2.101-0.86,4.147-2.361,5.615
			c-1.467,1.435-3.392,2.213-5.404,2.157c-3.155-0.07-5.398-1.674-8.237-3.706c-1.343-0.962-2.867-2.052-4.672-3.102
			c-5.454-3.173-11.131-2.899-11.17-2.897c-13.374,0-23.85,10.505-23.85,23.915c0,4.385,1.144,8.689,3.308,12.449
			c2.007,3.488,4.866,6.454,8.266,8.576c3.948,2.463,8.237,3.194,11.913,3.583c3.519,0.374,7.525,1.174,10.565,4.27
			c2.539,2.587,3.995,6.126,3.995,9.712c0,7.708-6.27,13.979-13.979,13.979c-7.707,0-13.979-6.271-13.979-13.979
			c0-0.159-0.127-0.287-0.286-0.287s-0.287,0.128-0.287,0.287c0,8.023,6.529,14.553,14.552,14.553
			c8.025,0,14.552-6.529,14.552-14.553c0-3.735-1.515-7.42-4.159-10.114c-3.167-3.226-7.294-4.053-10.914-4.438
			c-3.61-0.384-7.82-1.099-11.668-3.5c-3.321-2.073-6.113-4.969-8.074-8.376c-2.114-3.673-3.231-7.879-3.231-12.163
			c0-13.089,10.224-23.342,23.291-23.342c0.057-0.002,5.565-0.264,10.867,2.82c1.781,1.036,3.293,2.118,4.626,3.073
			c2.92,2.088,5.226,3.738,8.558,3.812c2.159,0.04,4.241-0.776,5.818-2.319c1.61-1.576,2.534-3.772,2.534-6.026
			c0-4.601-3.744-8.345-8.345-8.345C49.997,2.755,49.663,2.775,49.336,2.813"/>
	</defs>
	<clipPath id="SVGID_20_">
		<use xlink:href="#SVGID_19_"  overflow="visible"/>
	</clipPath>
	
		<linearGradient id="SVGID_21_" gradientUnits="userSpaceOnUse" x1="-213.9702" y1="492.9673" x2="-212.9702" y2="492.9673" gradientTransform="matrix(56.2676 0 0 -56.2676 12041.9512 27782.6094)">
		<stop  offset="0" style="stop-color:#456CB4"/>
		<stop  offset="1" style="stop-color:#5AA05E"/>
	</linearGradient>
	<rect x="2.405" y="2.755" clip-path="url(#SVGID_20_)" fill="url(#SVGID_21_)" width="56.268" height="83.47"/>
</g>
<g>
	<defs>
		<rect id="SVGID_22_" x="-83.333" y="-86.667" width="668.693" height="848.692"/>
	</defs>
	<clipPath id="SVGID_23_">
		<use xlink:href="#SVGID_22_"  overflow="visible"/>
	</clipPath>
	<g clip-path="url(#SVGID_23_)">
		<g>
			<defs>
				<rect id="SVGID_24_" x="59.391" y="68.763" width="142.006" height="12.358"/>
			</defs>
			<clipPath id="SVGID_25_">
				<use xlink:href="#SVGID_24_"  overflow="visible"/>
			</clipPath>
			<path clip-path="url(#SVGID_25_)" d="M61.754,72.194c0.218-0.001,0.553,0.009,1.005,0.029s0.792,0.042,1.023,0.066l0.012,4.561
				l-1.939,0.006c-0.525,0.001-0.938-0.074-1.24-0.227c-0.302-0.15-0.519-0.393-0.653-0.725s-0.201-0.783-0.203-1.356
				c-0.001-0.567,0.061-1.021,0.187-1.362c0.126-0.341,0.334-0.592,0.626-0.751C60.864,72.276,61.258,72.195,61.754,72.194
				L61.754,72.194z M60.441,74.528c0.001,0.421,0.051,0.753,0.148,0.996c0.098,0.244,0.256,0.422,0.475,0.533
				c0.219,0.113,0.52,0.168,0.904,0.168l1.142-0.004l-0.008-3.336c-0.52-0.035-0.921-0.052-1.204-0.052
				c-0.537,0.001-0.915,0.134-1.132,0.396C60.547,73.492,60.439,73.925,60.441,74.528L60.441,74.528z M60.971,70.67l0.673-0.002
				l0.002,0.768l-0.673,0.001L60.971,70.67z M62.078,70.667l0.673-0.002l0.002,0.768l-0.673,0.001L62.078,70.667z M65.959,72.083
				c0.643-0.002,1.183,0.236,1.618,0.713c0.435,0.477,0.654,1.255,0.657,2.333l0.004,1.709l-3.559,0.01l-0.001-0.631l2.877-0.008
				l-0.002-1.06c-0.002-0.901-0.174-1.534-0.514-1.896c-0.34-0.361-0.738-0.542-1.192-0.541l-0.717,0.002l-0.046-0.521
				c0.059-0.024,0.179-0.049,0.358-0.074C65.621,72.096,65.793,72.083,65.959,72.083L65.959,72.083z M70.917,72.088
				c0.236,0,0.521,0.017,0.854,0.053s0.61,0.075,0.828,0.117l0.01,4.003c0.003,0.969-0.112,1.683-0.344,2.144
				c-0.232,0.461-0.634,0.692-1.207,0.693c-0.271,0.001-0.717-0.043-1.337-0.133l-0.001-0.622c0.549,0.084,0.979,0.126,1.292,0.124
				c0.207,0,0.373-0.039,0.5-0.115s0.228-0.233,0.304-0.471c0.076-0.238,0.114-0.589,0.112-1.052l-1.301,0.003
				c-0.644,0.002-1.07-0.207-1.281-0.627c-0.211-0.42-0.317-0.965-0.319-1.635c-0.001-0.567,0.051-1.029,0.156-1.386
				c0.105-0.357,0.296-0.628,0.574-0.815C70.035,72.184,70.421,72.09,70.917,72.088L70.917,72.088z M69.71,74.55
				c0.001,0.487,0.079,0.885,0.233,1.192c0.154,0.307,0.467,0.46,0.94,0.459l1.044-0.003l-0.009-3.418
				c-0.319-0.042-0.596-0.063-0.833-0.062c-0.36,0.001-0.64,0.07-0.84,0.208s-0.34,0.339-0.419,0.604
				C69.748,73.795,69.709,74.135,69.71,74.55L69.71,74.55z M77.886,76.184l0.002,0.631l-4.391,0.011l-0.002-0.631l2.877-0.007
				l-0.003-1.061c-0.002-0.902-0.174-1.534-0.514-1.896c-0.341-0.362-0.738-0.542-1.192-0.541l-0.717,0.002L73.9,72.172
				c0.059-0.024,0.178-0.049,0.358-0.074c0.18-0.025,0.353-0.038,0.518-0.038c0.644-0.001,1.183,0.236,1.618,0.713
				c0.435,0.478,0.654,1.254,0.657,2.333l0.003,1.079L77.886,76.184z M83.127,76.17l0.001,0.631l-5.241,0.013l-0.001-0.63l3.55-0.01
				l-0.006-2.477c-0.001-0.305-0.078-0.535-0.232-0.69c-0.154-0.155-0.385-0.232-0.691-0.231c-0.266,0.001-0.791,0.051-1.575,0.15
				l-0.248,0.028l-0.028-0.521c0.891-0.191,1.557-0.288,2-0.289c0.968-0.002,1.453,0.517,1.456,1.559l0.006,2.468L83.127,76.17z
				 M89.271,76.155l0.001,0.63l-0.283,0.001c-0.112,0-0.232-0.031-0.359-0.096c-0.127-0.063-0.244-0.149-0.351-0.26l0.001,0.357
				l-5.152,0.014l-0.001-0.631l1.46-0.004c-0.084-0.523-0.126-1.057-0.128-1.6c-0.001-0.408,0.021-0.813,0.068-1.211
				c0.046-0.399,0.098-0.724,0.157-0.974c0.142-0.061,0.348-0.118,0.619-0.17c0.271-0.053,0.558-0.08,0.858-0.08
				c0.72-0.002,1.252,0.18,1.595,0.544s0.516,0.974,0.518,1.827l0.003,1.307c0.189,0.231,0.426,0.347,0.709,0.346H89.271z
				 M85.141,74.565c0.001,0.299,0.015,0.596,0.042,0.891c0.027,0.297,0.056,0.532,0.086,0.709l2.329-0.006l-0.004-1.664
				c-0.001-0.621-0.13-1.065-0.384-1.333s-0.641-0.401-1.161-0.399c-0.289,0.001-0.546,0.032-0.77,0.093
				C85.185,73.386,85.14,73.956,85.141,74.565L85.141,74.565z M91.026,70.218l0.017,6.562l-1.771,0.005l-0.001-0.63l1.089-0.004
				l-0.016-5.932L91.026,70.218z M92.62,70.213l0.682-0.001l0.017,6.562l-0.682,0.002L92.62,70.213z M101.453,76.124l0.001,0.63
				l-2.948,0.008c-0.525,0.001-0.938-0.073-1.24-0.226c-0.301-0.151-0.519-0.393-0.652-0.725c-0.134-0.332-0.201-0.784-0.203-1.357
				c-0.001-0.566,0.061-1.021,0.187-1.362c0.126-0.342,0.335-0.592,0.627-0.751c0.292-0.159,0.685-0.239,1.181-0.241
				c0.218,0,0.553,0.009,1.005,0.029c0.452,0.021,0.792,0.042,1.022,0.066l0.01,3.93L101.453,76.124z M97.093,74.434
				c0.001,0.42,0.05,0.752,0.148,0.996c0.098,0.243,0.256,0.421,0.475,0.533s0.52,0.168,0.903,0.166l1.142-0.002l-0.009-3.336
				c-0.52-0.035-0.92-0.053-1.204-0.052c-0.537,0.001-0.915,0.133-1.132,0.396C97.199,73.398,97.091,73.831,97.093,74.434
				L97.093,74.434z M97.773,70.575l0.673-0.002l0.002,0.768l-0.673,0.002L97.773,70.575z M98.88,70.572l0.673-0.002l0.002,0.768
				l-0.673,0.001L98.88,70.572z M104.772,76.114l0.002,0.631l-3.32,0.009l-0.001-0.63l1.319-0.004l-0.01-3.939l0.682-0.002
				l0.01,3.939L104.772,76.114z M102.218,77.483l0.672-0.002l0.002,0.768l-0.673,0.002L102.218,77.483z M103.324,77.48l0.673-0.002
				l0.002,0.769l-0.673,0.001L103.324,77.48z M110.917,76.098l0.002,0.631l-0.284,0.001c-0.112,0-0.231-0.032-0.358-0.095
				c-0.127-0.064-0.244-0.15-0.351-0.26l0.001,0.355l-5.152,0.014l-0.002-0.631l1.461-0.004c-0.084-0.523-0.127-1.057-0.128-1.599
				c-0.001-0.408,0.021-0.812,0.067-1.211c0.046-0.399,0.099-0.724,0.157-0.974c0.142-0.061,0.348-0.118,0.62-0.171
				c0.271-0.052,0.558-0.079,0.858-0.08c0.72-0.002,1.251,0.18,1.595,0.544c0.343,0.364,0.516,0.974,0.518,1.827l0.003,1.308
				c0.189,0.23,0.426,0.346,0.709,0.345L110.917,76.098z M106.787,74.51c0,0.298,0.015,0.595,0.042,0.891
				c0.027,0.295,0.056,0.531,0.086,0.708l2.328-0.007l-0.004-1.662c-0.002-0.622-0.13-1.067-0.384-1.334
				c-0.254-0.267-0.642-0.4-1.161-0.399c-0.29,0-0.546,0.032-0.77,0.093C106.831,73.33,106.785,73.901,106.787,74.51L106.787,74.51z
				 M112.672,70.162l0.017,6.563l-1.771,0.004l-0.002-0.631l1.089-0.002l-0.015-5.933L112.672,70.162z M115.794,76.086l0.002,0.631
				l-1.514,0.003l-0.017-6.563l0.682-0.001l0.015,5.932L115.794,76.086z M121.221,76.072l0.002,0.631l-0.93,0.003
				c-0.295,0-0.596-0.035-0.903-0.107s-0.587-0.176-0.842-0.309c-0.253,0.128-0.529,0.23-0.827,0.308
				c-0.297,0.077-0.591,0.116-0.88,0.116l-1.044,0.004l-0.002-0.631l1.018-0.004c0.36,0,0.72-0.071,1.08-0.213
				c-0.455-0.357-0.819-0.78-1.092-1.268c-0.273-0.486-0.416-0.916-0.429-1.287l-0.028-0.649c0.754-0.41,1.483-0.616,2.185-0.618
				c0.696-0.001,1.432,0.201,2.206,0.607l-0.025,0.649c-0.011,0.238-0.075,0.507-0.192,0.81c-0.117,0.301-0.289,0.607-0.516,0.92
				c-0.227,0.311-0.493,0.586-0.799,0.824c0.354,0.145,0.714,0.217,1.081,0.217L121.221,76.072z M117.044,73.021
				c0.001,0.5,0.138,0.967,0.411,1.402c0.272,0.436,0.637,0.802,1.092,1.1c0.448-0.301,0.81-0.67,1.086-1.109s0.414-0.906,0.413-1.4
				c-0.586-0.224-1.088-0.335-1.506-0.334C118.131,72.68,117.633,72.794,117.044,73.021L117.044,73.021z M122.977,70.135
				l0.017,6.563l-1.771,0.005l-0.002-0.631l1.09-0.003l-0.016-5.932L122.977,70.135z M124.571,70.131l0.682-0.002l0.017,6.563
				l-0.682,0.002L124.571,70.131z M136.106,76.665l-1.125,0.002v0.119c0.002,0.652-0.165,1.174-0.5,1.564
				c-0.336,0.391-0.819,0.588-1.451,0.589l-2.328,0.006c-0.431,0.001-0.823-0.08-1.178-0.243c-0.354-0.164-0.636-0.394-0.843-0.688
				c-0.208-0.295-0.312-0.632-0.313-1.009c-0.001-0.372,0.073-1.045,0.225-2.021l0.647,0.108c-0.129,0.896-0.191,1.481-0.191,1.755
				c0.002,0.287,0.074,0.543,0.219,0.768c0.146,0.225,0.341,0.398,0.586,0.52c0.246,0.121,0.513,0.182,0.803,0.182l2.336,0.002
				c0.42,0,0.742-0.141,0.969-0.418s0.34-0.63,0.338-1.057c0-0.079-0.003-0.137-0.009-0.174l-0.212,0.001
				c-0.461,0.001-0.824-0.086-1.09-0.263l0.281-0.521c0.107,0.073,0.221,0.117,0.342,0.132s0.297,0.022,0.526,0.021l1.966-0.005
				L136.106,76.665z M130.784,79.602l0.672-0.001l0.002,0.768l-0.672,0.002L130.784,79.602z M131.89,79.6l0.673-0.002l0.002,0.768
				l-0.673,0.002L131.89,79.6z M139.424,76.025l0.001,0.631l-3.319,0.009l-0.002-0.631l1.318-0.004l-0.01-3.939l0.682-0.002
				l0.01,3.939L139.424,76.025z M138.658,70.826l-1.806,0.37l-0.08-0.292l0.425-0.12c-0.201-0.17-0.302-0.386-0.303-0.648
				c-0.001-0.226,0.075-0.419,0.229-0.581s0.351-0.243,0.593-0.244c0.136,0,0.263,0.023,0.381,0.072
				c0.118,0.049,0.207,0.097,0.266,0.146l-0.088,0.347c-0.035-0.03-0.09-0.061-0.164-0.091c-0.073-0.03-0.154-0.045-0.243-0.045
				c-0.153,0-0.278,0.052-0.376,0.156c-0.097,0.104-0.145,0.226-0.145,0.366c0,0.177,0.068,0.317,0.205,0.42l1.008-0.276
				L138.658,70.826z M142.744,76.016l0.001,0.631l-3.319,0.009l-0.001-0.631l1.318-0.003l-0.01-3.94l0.682-0.001l0.01,3.939
				L142.744,76.016z M140.188,77.385l0.674-0.002l0.002,0.768l-0.674,0.002L140.188,77.385z M141.295,77.381l0.672-0.001
				l0.002,0.768l-0.672,0.002L141.295,77.381z M146.063,76.008l0.002,0.631l-3.32,0.008l-0.001-0.631l1.319-0.003l-0.011-3.939
				l0.683-0.002l0.01,3.939L146.063,76.008z M144.066,77.375l0.673-0.002l0.002,0.768l-0.672,0.002L144.066,77.375z M147.819,70.071
				l0.017,6.562l-1.771,0.006l-0.002-0.631l1.09-0.004l-0.016-5.931L147.819,70.071z M149.413,70.067l0.682-0.002l0.017,6.562
				l-0.682,0.002L149.413,70.067z M158.662,75.975l0.001,0.631l-0.283,0.001c-0.105,0-0.225-0.032-0.354-0.1
				c-0.131-0.067-0.252-0.155-0.364-0.265l0.001,0.366l-2.851,0.007c-0.655,0.002-0.981,0.42-0.979,1.255
				c0.001,0.384,0.082,0.956,0.243,1.718l-0.575,0.02c-0.186-0.877-0.278-1.541-0.279-1.992c-0.002-0.444,0.07-0.787,0.214-1.028
				s0.328-0.407,0.552-0.499c-0.096-0.512-0.145-1.078-0.146-1.7c-0.001-0.408,0.021-0.812,0.067-1.211
				c0.047-0.399,0.099-0.724,0.157-0.974c0.142-0.061,0.348-0.118,0.619-0.17c0.271-0.053,0.558-0.079,0.858-0.08
				c0.721-0.002,1.252,0.18,1.596,0.544c0.343,0.365,0.516,0.974,0.518,1.827l0.004,1.298c0.195,0.237,0.434,0.355,0.717,0.354
				L158.662,75.975z M156.979,75.98l-0.004-1.663c-0.002-0.622-0.13-1.066-0.385-1.334c-0.254-0.268-0.641-0.401-1.16-0.399
				c-0.289,0.001-0.546,0.032-0.77,0.093c-0.094,0.531-0.139,1.101-0.138,1.71c0.001,0.298,0.015,0.596,0.042,0.891
				s0.057,0.531,0.086,0.708L156.979,75.98z M164.584,75.959l0.002,0.631l-5.924,0.016l-0.001-0.631l3.975-0.01l-0.003-1.326
				c-0.001-0.365-0.068-0.682-0.202-0.949c-0.134-0.268-0.354-0.404-0.66-0.41l-2.399,0.006l-0.453-0.629l0.458-0.933
				c0.105-0.22,0.266-0.487,0.48-0.801c0.214-0.314,0.431-0.609,0.648-0.884l0.487,0.282c-0.27,0.421-0.473,0.746-0.607,0.975
				c-0.136,0.229-0.26,0.456-0.371,0.682l-0.334,0.677l2.143-0.005c0.514-0.001,0.89,0.184,1.13,0.555
				c0.239,0.371,0.36,0.852,0.362,1.443l0.004,1.316L164.584,75.959z M169.825,75.947l0.002,0.63l-5.24,0.014l-0.002-0.631
				l3.55-0.008l-0.007-2.478c0-0.305-0.078-0.535-0.231-0.689c-0.153-0.155-0.384-0.232-0.691-0.231c-0.266,0-0.79,0.051-1.575,0.15
				l-0.248,0.028l-0.027-0.521c0.891-0.191,1.557-0.288,2-0.289c0.968-0.002,1.453,0.517,1.455,1.559l0.007,2.468L169.825,75.947z
				 M173.145,75.938l0.002,0.631l-3.32,0.008l-0.002-0.63l1.32-0.003l-0.011-3.94l0.682-0.002l0.011,3.94L173.145,75.938z
				 M170.581,70.388l0.674-0.002l0.002,0.768l-0.674,0.002L170.581,70.388z M171.688,70.385l0.672-0.002l0.002,0.768l-0.672,0.001
				L171.688,70.385z M174.901,70.001l0.017,6.563l-1.771,0.004l-0.002-0.631l1.089-0.002l-0.015-5.933L174.901,70.001z
				 M176.495,69.998l0.682-0.002l0.016,6.563l-0.682,0.001L176.495,69.998z M185.327,75.907l0.002,0.631l-2.948,0.008
				c-0.525,0.001-0.938-0.074-1.239-0.226c-0.302-0.151-0.52-0.394-0.653-0.726c-0.134-0.331-0.201-0.783-0.202-1.356
				c-0.002-0.566,0.061-1.021,0.187-1.362c0.126-0.341,0.335-0.592,0.626-0.751c0.293-0.159,0.686-0.239,1.182-0.241
				c0.219,0,0.554,0.009,1.005,0.029c0.452,0.021,0.792,0.042,1.022,0.066l0.011,3.93L185.327,75.907z M180.967,74.217
				c0,0.421,0.051,0.753,0.148,0.996c0.098,0.244,0.256,0.422,0.475,0.533c0.219,0.113,0.52,0.168,0.904,0.168l1.142-0.004
				l-0.009-3.335c-0.52-0.036-0.921-0.053-1.204-0.052c-0.537,0.001-0.915,0.133-1.132,0.396
				C181.073,73.182,180.965,73.615,180.967,74.217L180.967,74.217z M181.647,70.359l0.674-0.001l0.002,0.768l-0.674,0.002
				L181.647,70.359z M182.754,70.356l0.672-0.001l0.002,0.768l-0.672,0.002L182.754,70.356z M188.488,72.581
				c0.514-0.001,0.89,0.184,1.13,0.555c0.24,0.371,0.361,0.853,0.363,1.443l0.004,1.947l-4.656,0.012l-0.002-0.631l3.975-0.01
				l-0.003-1.326c-0.001-0.365-0.067-0.682-0.202-0.95c-0.133-0.268-0.354-0.404-0.66-0.41l-2.398,0.006l-0.453-0.629l0.457-0.934
				c0.105-0.22,0.266-0.487,0.48-0.801c0.215-0.314,0.432-0.609,0.648-0.883l0.488,0.282c-0.271,0.421-0.474,0.746-0.608,0.975
				c-0.136,0.229-0.259,0.457-0.37,0.682l-0.335,0.677L188.488,72.581L188.488,72.581z M194.093,76.514l-1.106,0.004v0.1
				c0.004,1.451-0.481,2.178-1.455,2.18c-0.095,0-0.182-0.002-0.262-0.008c-0.079-0.006-0.148-0.013-0.208-0.019l-0.186-0.018
				l-0.002-0.622c0.296,0.023,0.481,0.035,0.558,0.035c0.295,0,0.516-0.121,0.659-0.362s0.216-0.577,0.214-1.011l-0.012-4.835
				l0.682-0.001l0.01,3.93l1.106-0.003L194.093,76.514z M200.473,71.928c0.078,0.347,0.145,0.716,0.202,1.105
				c0.058,0.39,0.086,0.697,0.087,0.923l0.006,2.541l-1.646,0.005c-0.359,0-0.688-0.127-0.983-0.382
				c-0.212,0.257-0.492,0.386-0.841,0.386l-3.204,0.008l-0.002-0.63l1.435-0.004l-0.01-3.482l0.682-0.001l0.01,3.483l0.877-0.003
				c0.271-0.001,0.467-0.122,0.588-0.362c0.119-0.241,0.18-0.545,0.178-0.91l-0.005-2.212l0.682-0.001l0.006,2.203
				c0.001,0.372-0.04,0.694-0.122,0.97c0.089,0.078,0.201,0.15,0.338,0.213c0.135,0.064,0.271,0.096,0.406,0.096l0.93-0.003
				l-0.004-1.983c-0.001-0.231-0.019-0.522-0.052-0.873c-0.033-0.351-0.071-0.702-0.113-1.056L200.473,71.928L200.473,71.928z
				 M197.282,70.319l0.673-0.002l0.003,0.768l-0.674,0.001L197.282,70.319z M197.836,69.202l0.664-0.001l0.002,0.74l-0.664,0.001
				L197.836,69.202z M198.389,70.316l0.672-0.002l0.002,0.768l-0.672,0.001L198.389,70.316z"/>
		</g>
	</g>
</g>
</svg>
